<svg xmlns="http://www.w3.org/2000/svg" viewBox="0 0 960 720" role="img">
  <defs>
    <linearGradient id="shop-bg" x1="0%" x2="100%" y1="0%" y2="100%">
      <stop offset="0%" stop-color="#11253a"/>
      <stop offset="100%" stop-color="#1f4061"/>
    </linearGradient>
  </defs>
  <rect width="960" height="720" fill="url(#shop-bg)"/>
  <rect y="530" width="960" height="190" fill="#0a1624"/>
  <rect x="130" y="162" width="700" height="360" rx="30" fill="#173754"/>
  <rect x="168" y="220" width="624" height="56" rx="18" fill="#f07a57"/>
  <rect x="210" y="314" width="176" height="170" rx="22" fill="#0f2236"/>
  <rect x="416" y="314" width="176" height="170" rx="22" fill="#22496f"/>
  <rect x="622" y="314" width="128" height="170" rx="22" fill="#102338"/>
  <rect x="654" y="348" width="62" height="102" rx="12" fill="#79bdf2"/>
  <rect x="250" y="356" width="96" height="18" rx="9" fill="#dcefff" opacity="0.82"/>
  <rect x="456" y="356" width="96" height="18" rx="9" fill="#dcefff" opacity="0.82"/>
  <rect x="250" y="392" width="74" height="14" rx="7" fill="#dcefff" opacity="0.42"/>
  <rect x="456" y="392" width="74" height="14" rx="7" fill="#dcefff" opacity="0.42"/>
  <rect x="352" y="554" width="100" height="74" rx="20" fill="#f1dccd"/>
  <rect x="372" y="578" width="60" height="10" rx="5" fill="#8c6f58"/>
  <rect x="382" y="598" width="40" height="8" rx="4" fill="#8c6f58"/>
  <path d="M82 574h796" stroke="#1b3550" stroke-width="16" stroke-linecap="round"/>
</svg>
