<svg xmlns="http://www.w3.org/2000/svg" viewBox="0 0 1200 820" role="img">
  <defs>
    <linearGradient id="feature-sky" x1="0%" x2="100%" y1="0%" y2="100%">
      <stop offset="0%" stop-color="#0b1726"/>
      <stop offset="100%" stop-color="#17314c"/>
    </linearGradient>
    <linearGradient id="feature-route" x1="0%" x2="100%" y1="0%" y2="0%">
      <stop offset="0%" stop-color="#8fd1ff"/>
      <stop offset="100%" stop-color="#f07a57"/>
    </linearGradient>
  </defs>
  <rect width="1200" height="820" fill="url(#feature-sky)"/>
  <rect y="590" width="1200" height="230" fill="#09111b"/>
  <circle cx="1020" cy="150" r="150" fill="#204666" opacity="0.52"/>
  <path d="M110 620C260 570 402 548 548 540c152-8 276-42 386-140 44-40 92-82 166-114" fill="none" stroke="url(#feature-route)" stroke-width="18" stroke-linecap="round" stroke-dasharray="18 20"/>
  <circle cx="108" cy="620" r="18" fill="#8fd1ff"/>
  <circle cx="910" cy="300" r="18" fill="#f07a57"/>
  <rect x="148" y="514" width="136" height="92" rx="24" fill="#f1dccd"/>
  <rect x="176" y="540" width="80" height="14" rx="7" fill="#8c6f58"/>
  <rect x="188" y="566" width="56" height="10" rx="5" fill="#8c6f58"/>
  <rect x="786" y="344" width="278" height="218" rx="28" fill="#12253a" stroke="#74baf0" stroke-opacity="0.32"/>
  <rect x="818" y="396" width="212" height="108" rx="20" fill="#1b4367"/>
  <rect x="846" y="432" width="54" height="72" rx="10" fill="#102235"/>
  <rect x="920" y="432" width="82" height="18" rx="9" fill="#dff3ff" opacity="0.82"/>
  <rect x="920" y="466" width="66" height="14" rx="7" fill="#dff3ff" opacity="0.44"/>
  <rect x="820" y="360" width="84" height="22" rx="11" fill="#f07a57"/>
  <rect x="178" y="250" width="140" height="310" rx="18" fill="#11263b"/>
  <rect x="352" y="214" width="160" height="346" rx="18" fill="#173550"/>
  <rect x="550" y="172" width="168" height="388" rx="18" fill="#122b43"/>
  <g fill="#95d2fb">
    <rect x="206" y="284" width="40" height="52" rx="8"/>
    <rect x="384" y="248" width="44" height="56" rx="8"/>
    <rect x="586" y="210" width="48" height="60" rx="8"/>
  </g>
  <path d="M84 664h1032" stroke="#19324e" stroke-width="12" stroke-linecap="round"/>
</svg>
