<svg xmlns="http://www.w3.org/2000/svg" viewBox="0 0 960 720" role="img" aria-labelledby="title desc">
  <title id="title">Tjek leverandør og afhentningssted</title>
  <desc id="desc">Illustration af leverandørkort og afhentningssted med kortmarkør i Nørrebro Posthus-farver.</desc>
  <rect width="960" height="720" fill="#fbf3e8"/>
  <rect x="92" y="94" width="776" height="532" rx="36" fill="#fff8f1" stroke="#f1dfca" stroke-width="8"/>

  <rect x="150" y="150" width="286" height="420" rx="30" fill="#110b07"/>
  <text x="186" y="210" fill="#f6d4b1" font-family="Rubik, Arial, sans-serif" font-size="28" font-weight="700">Leverandør</text>

  <rect x="186" y="248" width="214" height="62" rx="22" fill="#fbf1e7"/>
  <circle cx="222" cy="279" r="12" fill="#c97525"/>
  <text x="250" y="287" fill="#24160d" font-family="Rubik, Arial, sans-serif" font-size="28" font-weight="700">PostNord</text>

  <rect x="186" y="330" width="214" height="62" rx="22" fill="#f7e7d6"/>
  <circle cx="222" cy="361" r="12" fill="#974f16"/>
  <text x="250" y="369" fill="#24160d" font-family="Rubik, Arial, sans-serif" font-size="28" font-weight="700">DHL</text>

  <rect x="186" y="412" width="214" height="62" rx="22" fill="#fbf1e7"/>
  <circle cx="222" cy="443" r="12" fill="#f2b36b"/>
  <text x="250" y="451" fill="#24160d" font-family="Rubik, Arial, sans-serif" font-size="28" font-weight="700">Bring</text>

  <rect x="186" y="502" width="174" height="24" rx="12" fill="#4b2f1d" opacity="0.28"/>
  <rect x="186" y="536" width="142" height="24" rx="12" fill="#4b2f1d" opacity="0.16"/>

  <rect x="500" y="150" width="310" height="420" rx="30" fill="#f7e7d6"/>
  <text x="536" y="210" fill="#974f16" font-family="Rubik, Arial, sans-serif" font-size="28" font-weight="700">Afhentningssted</text>

  <rect x="536" y="248" width="238" height="182" rx="26" fill="#fbf1e7" stroke="#f1dfca" stroke-width="6"/>
  <path d="M655 278c-34 0-62 27-62 60 0 49 62 118 62 118s62-69 62-118c0-33-28-60-62-60z" fill="#c97525"/>
  <circle cx="655" cy="338" r="22" fill="#fbf1e7"/>

  <path d="M558 470c48-44 112-64 190-58" fill="none" stroke="#c97525" stroke-width="10" stroke-linecap="round" stroke-dasharray="18 18"/>
  <circle cx="552" cy="476" r="9" fill="#974f16"/>
  <circle cx="748" cy="412" r="9" fill="#c97525"/>

  <rect x="536" y="500" width="238" height="42" rx="18" fill="#110b07"/>
  <text x="565" y="529" fill="#fbf1e7" font-family="Rubik, Arial, sans-serif" font-size="24" font-weight="700">Nørrebrogade 166</text>
</svg>
