<svg xmlns="http://www.w3.org/2000/svg" viewBox="0 0 960 720" role="img">
  <rect width="960" height="720" fill="#102338"/>
  <rect x="146" y="120" width="288" height="480" rx="30" fill="#173754"/>
  <rect x="522" y="172" width="262" height="376" rx="30" fill="#f4e7d9"/>
  <rect x="582" y="240" width="142" height="108" rx="16" fill="#cfb8a3"/>
  <rect x="580" y="388" width="146" height="26" rx="13" fill="#8b755f"/>
  <rect x="580" y="436" width="116" height="20" rx="10" fill="#8b755f" opacity="0.72"/>
  <rect x="200" y="188" width="180" height="300" rx="22" fill="#0d2033"/>
  <rect x="232" y="232" width="118" height="18" rx="9" fill="#79bdf2"/>
  <rect x="232" y="276" width="96" height="18" rx="9" fill="#79bdf2" opacity="0.54"/>
  <rect x="232" y="346" width="112" height="112" rx="18" fill="#f07a57"/>
  <path d="M0 628c188-38 320-40 480-10s290 28 480-12v114H0Z" fill="#09111b"/>
</svg>
